<?xml version="1.0" encoding="utf-8"?>
<svg version="1.1" id="Layer_1" xmlns="http://www.w3.org/2000/svg" xmlns:xlink="http://www.w3.org/1999/xlink" x="0px" y="0px"
	 width="30px" height="30px" viewBox="0 0 30 30" style="enable-background:new 0 0 30 30;" xml:space="preserve" fill="#80E993">
	<path d="M25.2,6.7c0.1-0.2,0.2-0.4,0.3-0.6c0.6-1.8-0.4-3.7-2.2-4.3c-0.6-0.2-1.2-0.2-1.8-0.1c-0.4-0.4-1-0.8-1.6-0.9
		c-1.3-0.4-2.7-0.2-3.8,0.7c-0.4-0.3-0.8-0.5-1.3-0.7c-1.6-0.5-3.5,0.1-4.6,1.5c-1-0.1-2,0.3-2.6,1C6,3.5,4.8,5,4.8,6.7
		c0,0.6,0.1,1.1,0.4,1.6C4.2,8.9,3.6,10,3.6,11.2c0,0.9,0.3,1.8,1,2.4c0.6,0.6,1.4,1,2.3,1.1c0.5,0.6,1.2,0.9,1.9,0.9
		c0.1,0,0.1,0,0.2,0c0.1,0.1,0.2,0.2,0.3,0.3c1.5,3.2,1.8,8.7,1.8,12.8c0,0.4,0.3,0.8,0.8,0.8h4.3c0.4,0,0.8-0.3,0.8-0.8
		c0-6,2.8-10.9,4.3-13c0.5,0.2,1,0.3,1.4,0.3c1.9,0,3.5-1.6,3.5-3.5c0-0.4-0.1-0.8-0.2-1.2c0.1-0.2,0.2-0.4,0.3-0.6
		C26.6,9.3,26.3,7.7,25.2,6.7z M25.3,10.5c-0.1,0.2-0.1,0.4-0.2,0.5c-0.2,0.3-0.1,0.5,0,0.6c0.1,0.3,0.2,0.6,0.2,1
		c0,1.4-1.2,2.6-2.6,2.6c-0.4,0-0.9-0.1-1.3-0.4c-0.2-0.1-0.7-0.5-0.8-0.7c-0.2-0.2-0.5-0.2-0.7,0c-0.2,0.2-0.2,0.5,0,0.7
		c0.1,0.1,0.4,0.4,0.6,0.5c-0.8,1.1-1.7,2.7-2.6,4.8c-1.2,2.8-1.8,5.7-1.8,8.5h-4c0-3.7-0.3-8.5-1.4-11.9c0.3,0.1,0.7,0.2,1.1,0.2
		c0.1,0,0.2,0,0.2,0c0.1,0.2,0.2,0.4,0.2,0.6c0.3,0.6,0.6,1.3,0.7,1.9c0,0.2,0.2,0.4,0.5,0.4c0,0,0,0,0,0c0.3,0,0.4-0.3,0.5-0.5
		c0-0.1,0-0.2,0.1-0.3c0.1-0.3,0.1-0.6,0.2-0.9c0.1-0.3,0.2-0.9,0.3-1.5c0.3,0.1,0.5,0.1,0.8,0.1c0.1,0,0.2,0,0.2,0v3.2
		c0,0.2,0.1,0.4,0.4,0.5c0,0,0.1,0,0.1,0c0.2,0,0.3-0.1,0.4-0.2c0.9-1.6,2.3-4.3,2.5-4.6c0.1-0.1,0.1-0.3,0.1-0.4
		c0-0.2-0.2-0.5-0.5-0.5c-0.2,0-0.4,0-0.6-0.1c-0.1,0-0.2,0-0.2-0.1c-0.2-0.1-0.4,0-0.6,0.2c0,0-0.1,0.1-0.1,0.1
		c-0.3,0.4-0.5,0.6-0.9,0.7c-0.3,0.1-0.5,0.1-0.8,0.1c-0.3,0-0.7-0.1-1-0.2c0,0,0,0,0,0c-0.1,0-0.2-0.1-0.3-0.1c0,0,0,0,0,0
		c-0.2-0.1-0.4-0.1-0.6,0c-0.3,0.2-0.6,0.4-0.9,0.5c-0.2,0.1-0.4,0.1-0.7,0.1c-0.6,0-1.2-0.2-1.7-0.6c0,0,0,0,0,0
		c-0.1-0.1-0.2-0.2-0.3-0.3l0,0c-0.1-0.1-0.3-0.3-0.7-0.3c-0.1,0-0.1,0-0.2,0c-0.5,0-0.9-0.2-1.2-0.6c-0.1-0.2-0.3-0.3-0.6-0.3
		c-1.4,0-2.5-1.2-2.5-2.6c0-1,0.5-1.9,1.3-2.3c0.2-0.1,0.3-0.3,0.3-0.3c0-0.2,0-0.3-0.1-0.5C5.8,7.7,5.7,7.2,5.7,6.7
		c0-1.3,1-2.4,2.3-2.6c0.1,0,0.2-0.1,0.3-0.2c0.5-0.6,1.2-0.9,2-0.8c0.3,0,0.5-0.1,0.7-0.3c0.9-1.2,2.3-1.7,3.6-1.2
		C15,1.7,15.4,2,15.8,2.3c0.2,0.2,0.5,0.3,0.9,0c0.8-0.7,2-1,3-0.6C20.2,1.8,20.6,2,21,2.4c0,0,0,0,0,0c0.1,0.1,0.4,0.3,0.7,0.2
		c0.4-0.1,0.9-0.1,1.4,0c1.3,0.4,2,1.8,1.6,3.1c-0.1,0.2-0.2,0.4-0.3,0.6c-0.2,0.3-0.2,0.6,0.1,0.8c0,0,0,0,0,0
		C25.3,8,25.7,9.3,25.3,10.5z M12.9,16.7c0.2-0.1,0.4-0.2,0.6-0.3c-0.1,0.3-0.1,0.8-0.2,1.2c-0.1-0.2-0.1-0.3-0.2-0.5
		C13,16.9,12.9,16.8,12.9,16.7z M16.4,16.4c0.6-0.2,0.9-0.6,1.2-0.9c0,0,0.1,0,0.1,0c-0.3,0.6-0.8,1.5-1.4,2.5L16.4,16.4L16.4,16.4z
		"/>
	<path d="M21.3,7.4c-0.4-0.1-0.7-0.1-1.1,0C20,6,18.9,4.9,17.5,4.6c-1.7-0.3-3.4,0.8-3.9,2.5c-0.1,0.2,0.1,0.5,0.3,0.6
		c0.2,0.1,0.5-0.1,0.6-0.3c0.3-1.2,1.6-2,2.8-1.8c1.2,0.2,2.1,1.3,2,2.5c0,0.2,0.1,0.3,0.2,0.4c0.1,0.1,0.3,0.1,0.5,0
		c0.3-0.2,0.7-0.3,1.1-0.2c0.9,0.2,1.4,1,1.3,1.9c0,0.2-0.1,0.4-0.2,0.5c-0.1,0.2-0.1,0.5,0.2,0.6c0.1,0,0.2,0.1,0.2,0.1
		c0.2,0,0.3-0.1,0.4-0.2c0.2-0.3,0.3-0.5,0.3-0.8c0.1-0.7,0-1.3-0.4-1.9C22.6,7.9,22,7.5,21.3,7.4z"/>
	<path d="M13.5,9.6C12.8,9,12,8.7,11,8.7c-0.9,0-1.7,0.4-2.4,1.1c-0.6,0.6-0.9,1.4-0.9,2.2c0,0.3,0.2,0.5,0.5,0.5c0,0,0,0,0,0
		c0.3,0,0.5-0.2,0.5-0.5c0-0.6,0.2-1.2,0.6-1.6c0.4-0.5,1.1-0.8,1.7-0.8c0.7,0,1.3,0.2,1.8,0.6c0.2,0.2,0.4,0.4,0.5,0.7
		c0.1,0.2,0.4,0.3,0.6,0.2c0.2-0.1,0.3-0.4,0.2-0.6C14,10.2,13.8,9.9,13.5,9.6z"/>
</svg>
