<?xml version="1.0" encoding="utf-8"?>
<svg version="1.1" id="Layer_1" xmlns="http://www.w3.org/2000/svg" xmlns:xlink="http://www.w3.org/1999/xlink" x="0px" y="0px"
	 width="30px" height="30px" viewBox="0 0 30 30" style="enable-background:new 0 0 30 30;" xml:space="preserve" fill="#D5CCFF">
	<path d="M28.9,25.6c-0.1-0.1-3.2-4.8-6.5-9.6c0-0.1-0.1-0.2-0.2-0.2c-2.6-3.8-5.2-7.7-6.2-9c-0.6-0.8-1.4-1.3-2.4-1.3
	c-1.7,0-3.4,1.4-4.1,2.1C9.1,7,7.8,4.4,8.9,2.6C9.1,2.3,9,1.9,8.7,1.8C8.4,1.6,8.1,1.7,7.9,2C7.2,3.2,7.2,4.5,7.5,5.7
	C4.7,3.3,1.7,2.2,1.6,2.2c-0.3-0.1-0.6,0-0.8,0.4c-0.1,0.3,0,0.6,0.4,0.8c0,0,3.4,1.3,6.2,3.9C4,5.9,1.8,7.5,1.7,7.6
	C1.5,7.8,1.4,8.2,1.6,8.4c0.2,0.3,0.6,0.3,0.8,0.1c0,0,2.4-1.8,5.8,0.4c-0.8,0.9-1.9,2.4-1.8,3.9c0,0.9,0.5,1.7,1.3,2.2
	c2.9,2.2,18.6,12.7,18.8,12.9c0.1,0,0.6,0.3,1.2,0.3c0.4,0,0.8-0.1,1.1-0.4C29.5,27.2,29.2,26.1,28.9,25.6z M28,27
	c0,0-0.1,0.1-0.2,0.1c-0.2,0-0.5-0.1-0.6-0.1C27,26.9,11.4,16.3,8.4,14.2c-0.5-0.4-0.8-0.8-0.8-1.3C7.6,11.4,9.2,9.6,9.9,9
	c0,0,0,0,0,0c0.6-0.6,2.3-2.2,3.7-2.2c0.6,0,1,0.3,1.4,0.8c0.3,0.4,0.7,1,1.2,1.7c-2.5,1-3.9,3.4-4,3.5c-0.2,0.3-0.1,0.6,0.2,0.8
	c0.1,0.1,0.2,0.1,0.3,0.1c0.2,0,0.4-0.1,0.5-0.3c0,0,1.3-2.3,3.5-3c0.1,0,0.1-0.1,0.2-0.1c0.5,0.7,1,1.4,1.5,2.2
	c-1.9,0.9-3.1,2.8-3.1,2.8c-0.2,0.3-0.1,0.6,0.2,0.8c0.1,0.1,0.2,0.1,0.3,0.1c0.2,0,0.4-0.1,0.5-0.3c0,0,1.1-1.8,2.8-2.5
	c0.6,0.8,1.2,1.7,1.8,2.6c-1.4,0.7-2.1,2.1-2.2,2.2c-0.1,0.3,0,0.6,0.3,0.8c0.1,0,0.2,0.1,0.3,0.1c0.2,0,0.4-0.1,0.5-0.3
	c0,0,0.6-1.2,1.8-1.7c3.2,4.7,6.2,9.2,6.3,9.3C27.9,26.3,28.2,26.8,28,27z"/>
</svg>
