<svg id="Layer_1" data-name="Layer 1" xmlns="http://www.w3.org/2000/svg" viewBox="0 0 936.54 305.31"><defs><style>.cls-1{fill:#6447ff;}</style></defs><title>cookyhero</title><path class="cls-1" d="M121.46,192.25s-25.68.7-36.21,29.8c-17.48,48.31,9.34,67.47,9.34,67.47s17.5-18.58,29.47-2c8.17,11.33-26.6,48.56-72.18,17.88-65.25-43.92-14.61-194.86,83.48-152.22,72,34.73,6.54,113.73-19.35,95.22S121.46,192.25,121.46,192.25Z" transform="translate(-22.56 -31.52)"/><path class="cls-1" d="M191.56,219.95c-27-8-57.61,70.35-29.51,81.43s38.12-33.61,38.09-33.73a16.26,16.26,0,0,0,10.48-2.58S207,286.19,226,288.43s35.28-25.64,39.3-42.8c4.35,1.58,6.66.37,6.66,0.37s-18.46,43.49-5.93,49.89,28.56-39.84,28.56-39.84,15.26,47.23,39.54,31.35c9.32-6.1,7.6-23.27-7.12-33.69C318,247.26,315.8,235.8,315.8,235.8s33.33-17.44,22.87-36.92c-6.09-11.35-17.7-5.33-17.7-5.33s47.72-75.35,8.08-81.8-50.14,104.76-50.14,104.76-6.61,5.35-12.45,2.48c-0.15,0-1.8-12.9-19.26-14.87-28.91-3.26-35.69,36-35.69,36s-5.38,12.22-7.88,10.84C207.14,237.72,207.84,224.78,191.56,219.95Z" transform="translate(-22.56 -31.52)"/><path class="cls-1" d="M374.34,174c11.84,11.51,11.6,36.14,11.6,36.14s13.73-57,40.62-48.54c29.44,9.23-22.31,182.22-110.52,175-18.06-4.41-20.84-29.21-.85-27.34,35,5.36,50.6-43.81,50.6-43.81s-15.57-14.23-10.53-39.5-9.53-30.53-9.57-42.71S362.49,162.44,374.34,174Z" transform="translate(-22.56 -31.52)"/><path class="cls-1" d="M439.42,111.29c1.92,17.54,33.66,14.31,33.66,14.31s-14.73,60.18-30.55,101.2c-11,28.59-29.42,39-16.32,47.57C469.8,302.78,532.28,114.07,538.08,103.9S573.47,56.62,549.61,37C521,13.44,490.18,72.54,469.35,89.11,452.94,102.17,437.61,94.77,439.42,111.29Z" transform="translate(-22.56 -31.52)"/><path class="cls-1" d="M539.36,158.6s-71.91-52.27-85.59-4.12c-16.64,58.58,72,45.81,72,45.81S480.67,261,514.23,267.21c47.16,8.7,62.77-111,81.21-135.79,15.24-20.45,58.91-68.64,40.72-82.77C577.49,3.08,539.36,158.6,539.36,158.6Z" transform="translate(-22.56 -31.52)"/><path class="cls-1" d="M458.8,188c-13.88-3.24,42.24-47.58,51.43-42.59,80.88,44,134.19,11.12,133.46-7.2-0.83-10.24-38.27,33.5-13.46,64.46,17.49,19.55,55-48.42,55-48.42l-11.43,62.11s-36.2,38.22-56,16.09c-41.88-42.29,7.16-134.65,46.68-112C693,136.76,637.35,275.29,458.8,188Z" transform="translate(-22.56 -31.52)"/><path class="cls-1" d="M677,232.69c16.64,4,33.44-42.5,43.22-68.12a30.38,30.38,0,0,0,11.54-6s-23.56,37.85-9.31,53.41,61.07,0.07,66.58-23.17S779.57,151.2,777.57,143s-24.53,56.67-34.24,48c-13.07-11.61,29.22-56.46,14.46-70.55-9-8.63-15.68,16.49-29.55,13.47,0,0,12.88-27.29-1.88-34.56C693,83,659.18,228.37,677,232.69Z" transform="translate(-22.56 -31.52)"/><path class="cls-1" d="M838.35,77.61c-58.55-21.55-97.15,111.12-43,127.3C841.71,218.75,895.91,98.79,838.35,77.61Z" transform="translate(-22.56 -31.52)"/><path class="cls-1" d="M819.64,98c-7.88-1.87,3.68,48.81,70.65,6.41,7.65-4.85,24.68-6.46,37-1.45,35.06,14.26,49.21-44,0-44.64C869.4,57.57,856.41,106.74,819.64,98Z" transform="translate(-22.56 -31.52)"/></svg>