<?xml version="1.0" encoding="utf-8"?>
<svg version="1.1" id="Layer_1" xmlns="http://www.w3.org/2000/svg" xmlns:xlink="http://www.w3.org/1999/xlink" x="0px" y="0px"
	 width="30px" height="30px" viewBox="0 0 30 30" style="enable-background:new 0 0 30 30;" xml:space="preserve" fill="#311B92">
<path d="M26.7,5c0.6-0.7,1.1-1.5,1.4-2.4c0.2-0.6,0.3-1.1,0.3-1.4c0-0.4-0.3-0.7-0.6-0.7c-0.4,0-0.7,0.3-0.7,0.6
	c0,0.2-0.1,0.6-0.3,1.1c-0.2,0.6-0.6,1.3-1,1.9c-1.8-1.5-3.8-2.1-6-1.9c-0.8,0.1-1.6,0.2-2.4,0.4c-0.4,0.1-0.8,0.3-1,0.4
	c0,0,0,0,0,0c0,0,0,0,0,0c0,0,0,0-0.1,0c-0.1,0-0.1,0.1-0.1,0.1c0,0,0,0.1-0.1,0.1c0,0-0.1,0.1-0.1,0.1c0,0.1,0,0.1,0,0.2
	c0,0,0,0.1,0,0.1c0,0,0,0,0,0c0,0,0,0,0,0c0,0.4,0.2,0.8,0.4,1.2c-1.4,1.6-2.7,2.3-5,3.1c-0.2,0.1-0.4,0.1-0.7,0.2
	c-3.5,1.2-5.4,2.3-7.6,5.2C0.1,17.1,1,23,4.6,26.6c3.2,3.2,8.3,3.8,12.3,1.6c4.6-2.5,8.6-8.7,9.5-13.6c0.3,0.1,0.5,0.2,0.8,0.2
	c0,0,0,0,0,0c0,0,0,0,0,0c0,0,0.1,0,0.1,0c0.1,0,0.1,0,0.2,0c0,0,0.1,0,0.1-0.1c0,0,0.1,0,0.1-0.1c0,0,0.1-0.1,0.1-0.1
	c0,0,0,0,0-0.1c0,0,0,0,0,0c0,0,0,0,0,0c0.1-0.2,0.2-0.5,0.4-1c0.2-0.7,0.4-1.5,0.4-2.4C28.8,8.9,28.2,6.8,26.7,5z M19.8,3.5
	c2.1-0.1,3.9,0.4,5.5,2s2.1,3.4,2,5.5c-0.1,0.7-0.2,1.4-0.4,2.1c0,0.1-0.1,0.2-0.1,0.3c-0.3-0.2-0.6-0.5-0.8-1
	c-0.2-0.4-0.4-1-0.6-1.5c-0.1-0.4-0.2-0.7-0.3-1.1c0-0.2-0.1-0.4-0.1-0.4c0,0,0,0,0,0C25,9.2,25,9.1,25,9c0-0.1-0.1-0.1-0.2-0.2
	c0,0,0,0,0,0c0,0,0,0,0,0c-0.1,0-0.1-0.1-0.2-0.1c-0.1,0-0.2,0-0.2,0c0,0,0,0,0,0c0,0,0,0,0,0c-0.1,0-0.2,0-0.2,0.1
	s-0.1,0.1-0.2,0.2c0,0,0,0,0,0c0,0-0.1,0.1-0.2,0.2c-0.5,0.6-1.2,1.3-2,1.7c-0.8,0.5-1.6,0.7-2.4,0.6c-0.1-0.7,0.1-1.5,0.6-2.4
	c0.5-0.7,1.1-1.4,1.7-2C21.8,7.1,21.9,7,21.9,7c0,0,0,0,0,0C22,7,22,6.9,22.1,6.8c0-0.1,0.1-0.2,0.1-0.2c0,0,0,0,0,0c0,0,0,0,0,0
	c0-0.1,0-0.2,0-0.2c0-0.1-0.1-0.1-0.1-0.2c0,0,0,0,0,0c0,0,0,0,0,0C22,6,21.9,5.9,21.8,5.9c-0.1,0-0.2-0.1-0.2-0.1c0,0,0,0,0,0
	c-0.1,0-0.2,0-0.4-0.1c-0.4-0.1-0.7-0.2-1.1-0.3c-0.6-0.2-1.1-0.4-1.5-0.6c-0.5-0.3-0.8-0.6-1-0.8c0.1,0,0.2-0.1,0.3-0.1
	C18.4,3.7,19.1,3.6,19.8,3.5z M16.2,27c-3.4,1.9-7.9,1.3-10.7-1.4c-3.1-3.1-3.9-8.2-1.4-11.4c2.1-2.6,3.7-3.6,7-4.7
	c0.4-0.1,0.6-0.2,0.7-0.2c2.6-0.9,4.1-1.7,5.6-3.5C17.6,5.9,17.7,6,17.9,6c0.5,0.3,1.1,0.5,1.8,0.7c0.1,0,0.3,0.1,0.4,0.1
	c-0.5,0.5-0.9,1-1.3,1.6c-0.8,1.2-1.1,2.5-0.7,3.7c0,0,0,0,0,0c0,0,0,0.1,0,0.1c0,0,0,0,0,0c0,0,0,0.1,0.1,0.1c0,0,0,0.1,0.1,0.1
	c0,0,0.1,0.1,0.1,0.1c0,0,0.1,0,0.1,0.1c0,0,0,0,0,0c0,0,0.1,0,0.1,0c0,0,0,0,0,0c1.2,0.3,2.5,0,3.7-0.7c0.6-0.4,1.1-0.8,1.6-1.3
	c0,0.1,0.1,0.3,0.1,0.4c0.2,0.7,0.4,1.3,0.7,1.8c0.1,0.2,0.2,0.4,0.4,0.5c0,0,0,0,0,0.1C24.6,18.1,20.6,24.6,16.2,27z"/>
</svg>
