<?xml version="1.0" encoding="UTF-8" standalone="no"?>
<svg width="60px" height="60px" viewBox="0 0 60 60" version="1.1" xmlns="http://www.w3.org/2000/svg" xmlns:xlink="http://www.w3.org/1999/xlink">
    <!-- Generator: Sketch 40 (33762) - http://www.bohemiancoding.com/sketch -->
    <title>Combined Shape</title>
    <desc>Created with Sketch.</desc>
    <defs></defs>
    <g id="social-icons" stroke="none" stroke-width="1" fill="none" fill-rule="evenodd">
        <g id="facebook-circle" transform="translate(-20.000000, -20.000000)" fill="#FFFFFF">
            <path d="M50,80 C66.5685425,80 80,66.5685425 80,50 C80,33.4314575 66.5685425,20 50,20 C33.4314575,20 20,33.4314575 20,50 C20,66.5685425 33.4314575,80 50,80 Z M41,44.1100562 L44.8569541,44.1100562 L44.8569541,40.4308154 C44.8569541,38.8080481 44.8987052,36.3059361 46.0989166,34.7563179 C47.3641328,33.1153931 49.0997093,32 52.0862327,32 C56.9515547,32 59,32.681168 59,32.681168 L58.0360257,38.2897794 C58.0360257,38.2897794 56.4288734,37.8337652 54.929534,37.8337652 C53.4291377,37.8337652 52.0862327,38.3613721 52.0862327,39.8331722 L52.0862327,44.1100562 L58.2368537,44.1100562 L57.8071875,49.588452 L52.0862327,49.588452 L52.0862327,68.6206897 L44.8569541,68.6206897 L44.8569541,49.588452 L41,49.588452 L41,44.1100562 Z" id="Combined-Shape"></path>
        </g>
    </g>
</svg>