<?xml version="1.0" encoding="utf-8"?>
<svg version="1.1" id="Layer_1" xmlns="http://www.w3.org/2000/svg" xmlns:xlink="http://www.w3.org/1999/xlink" x="0px" y="0px"
	 width="30px" height="30px" viewBox="0 0 30 30" style="enable-background:new 0 0 30 30;" xml:space="preserve" fill="#F3EB7E">
	<path d="M24.7,11.5c0-0.1,0-0.2,0-0.3c0-0.3,0-0.8-0.2-1.2c-0.1-0.1-0.1-0.2-0.2-0.4c1-1,3.4-3.5,1.2-8.3c-0.1-0.3-0.5-0.4-0.8-0.3
		c-0.3,0.1-0.4,0.5-0.3,0.8c1,2.2,0.9,3.8,0.5,4.9c-0.5-1.2-1.5-2.2-2.9-3c-0.8-0.8-5.3-4.7-9-2.4c-1.3,0.8-1.9,1.9-2.4,2.6
		c-0.1,0.2-0.2,0.3-0.3,0.5c-1.8,2.6-3.2,3.7-3.6,4c-0.1,0-0.2,0-0.2,0.1C6.4,8.6,6.2,8.9,6.4,9.3c0,0,0.4,0.8,1.6,1.3
		c0,0-0.1,0.1-0.1,0.1C3.4,15.1,2.4,20,5.1,23.8c0,0.1,0,0.4,0.1,0.6c0,0.9,0.1,2.1,1,2.8c0.8,0.6,1.9,0.6,2.7,0.6
		c0.2,0,0.6,0,0.7,0c1.5,1,3.1,1.5,4.8,1.5c2.8,0,5.6-1.3,8.2-3.9C26.7,21.3,27.6,15.5,24.7,11.5z M24.1,8.2
		c-0.2,0.3-0.4,0.5-0.6,0.6c-0.1-0.1-0.2-0.2-0.3-0.2c-0.4-0.2-0.9-0.2-1.2-0.2c-0.1,0-0.3,0-0.4,0C20.2,7.5,19,7,17.7,6.9
		c1.8-1.2,3.5-1.8,4.1-2C23.2,5.8,24.1,7,24.1,8.2z M11.4,5.1c0.1-0.2,0.2-0.3,0.3-0.6c0.4-0.7,0.9-1.6,2-2.2c1.6-1,3.5-0.4,4.9,0.4
		c-2.1-0.2-4.4,0.2-5.9,1.7c-0.3,0.3-0.5,0.5-0.8,0.8c-0.7,0.7-1.3,1.4-2,1.9C10.3,6.5,10.8,5.9,11.4,5.1z M12.8,6
		c0.2-0.3,0.5-0.5,0.8-0.8c1.7-1.7,4.5-1.7,6.7-1c-0.9,0.4-2.2,1-3.4,1.9c-0.3,0.2-0.6,0.5-1.1,0.9c-0.9,0.8-2.4,2-3,2.2
		c-1.5,0.5-2.5,0.6-3.3,0.5c0,0,0,0,0,0C8.7,9.7,8.3,9.5,8,9.3C10.2,8.6,11.4,7.4,12.8,6z M21.8,24.7c-3.8,3.8-8.1,4.6-11.6,2.2
		c-0.2-0.2-0.5-0.2-0.9-0.2c-0.1,0-0.3,0-0.5,0c-0.7,0-1.5,0.1-1.9-0.3c-0.4-0.4-0.5-1.3-0.5-2c0-0.5-0.1-0.9-0.2-1.2
		c-2.4-3.3-1.4-7.7,2.6-11.7C8.8,11.3,9,11.2,9.2,11c0.1,0,0.1-0.1,0.2-0.1c0.9,0.1,2.1-0.1,3.6-0.5c0.8-0.2,1.9-1.2,3.3-2.3
		c1.7-0.1,3.1,0.2,4.7,1.3c0.3,0.2,0.6,0.2,1,0.2c0.3,0,0.6,0,0.8,0.1c0.2,0.1,0.7,0.6,0.8,0.8c0.1,0.2,0.1,0.4,0.1,0.7
		c0,0.3,0,0.6,0.2,0.9C26.3,15.6,25.5,20.9,21.8,24.7z"/>
	<path d="M23,15c-0.3,0-0.6,0.3-0.6,0.6c0.1,3-0.9,5.3-3,7.1c-0.2,0.2-0.3,0.6-0.1,0.8c0.1,0.1,0.3,0.2,0.4,0.2c0.1,0,0.3,0,0.4-0.1
		c2.4-2.1,3.6-4.7,3.4-8C23.6,15.2,23.3,15,23,15z"/>
</svg>
