<?xml version="1.0" encoding="UTF-8" standalone="no"?>
<svg width="60px" height="60px" viewBox="0 0 60 60" version="1.1" xmlns="http://www.w3.org/2000/svg" xmlns:xlink="http://www.w3.org/1999/xlink">
    <!-- Generator: Sketch 40 (33762) - http://www.bohemiancoding.com/sketch -->
    <title>Combined Shape</title>
    <desc>Created with Sketch.</desc>
    <defs></defs>
    <g id="social-icons" stroke="none" stroke-width="1" fill="none" fill-rule="evenodd">
        <g id="twitter-circle" transform="translate(-20.000000, -20.000000)" fill="#FFFFFF">
            <path d="M50,80 C66.5685425,80 80,66.5685425 80,50 C80,33.4314575 66.5685425,20 50,20 C33.4314575,20 20,33.4314575 20,50 C20,66.5685425 33.4314575,80 50,80 Z M68,39.9720382 C66.7318903,40.5311595 65.3661962,40.9094029 63.9356084,41.0791275 C65.3979111,40.2086828 66.5201321,38.831004 67.047088,37.1890397 C65.6789543,37.9945042 64.1659077,38.5793266 62.5508853,38.8940445 C61.2627708,37.5270341 59.4218405,36.6730769 57.3847655,36.6730769 C53.4784607,36.6730769 50.3089184,39.8236504 50.3089184,43.7069492 C50.3089184,44.2592816 50.3694207,44.7946414 50.4914013,45.3086645 C44.6090117,45.0152834 39.3950755,42.2172522 35.9020408,37.9581346 C35.292626,39.0007286 34.9437617,40.2086828 34.9437617,41.4981048 C34.9437617,43.9363199 36.1933303,46.0903675 38.0928113,47.3531185 C36.9330203,47.3177188 35.8405626,46.9981517 34.885211,46.47443 L34.885211,46.561232 C34.885211,49.9707568 37.3243339,52.8138863 40.5646249,53.4583548 C39.9703357,53.6237151 39.3457954,53.7061527 38.6988106,53.7061527 C38.2430913,53.7061527 37.7981063,53.663964 37.3682469,53.5815264 C38.2679753,56.3751933 40.8812864,58.4104337 43.9791042,58.4642606 C41.5565707,60.3520831 38.5041297,61.4761449 35.1886986,61.4761449 C34.6173417,61.4761449 34.0528158,61.4451095 33.5,61.3791594 C36.6324603,63.3731809 40.3533546,64.5384615 44.349925,64.5384615 C57.3711037,64.5384615 64.4884242,53.8210805 64.4884242,44.5240519 C64.4884242,44.2180627 64.4820812,43.9135283 64.4693953,43.6138432 C65.8526546,42.6211967 67.0539189,41.3822071 68,39.9720382 Z" id="Combined-Shape"></path>
        </g>
    </g>
</svg>